<?xml version="1.0" encoding="utf-8"?>
<!-- Generator: Adobe Illustrator 15.0.0, SVG Export Plug-In . SVG Version: 6.00 Build 0)  -->
<!DOCTYPE svg PUBLIC "-//W3C//DTD SVG 1.1//EN" "http://www.w3.org/Graphics/SVG/1.1/DTD/svg11.dtd">
<svg version="1.1" id="facebook-square" xmlns="http://www.w3.org/2000/svg" xmlns:xlink="http://www.w3.org/1999/xlink" x="0px"
	 y="0px" width="612px" height="792px" viewBox="0 0 612 792" enable-background="new 0 0 612 792" xml:space="preserve">
<circle fill="#3299BB" cx="306" cy="396" r="293.76"/>
<path fill="#FFFFFF" d="M405.961,246.06H206.045c-27.491,0-49.985,22.494-49.985,49.988v199.907
	c0,27.509,22.494,49.985,49.982,49.985h199.916c27.497,0.003,49.982-22.477,49.982-49.985V296.051
	C455.94,268.56,433.455,246.063,405.961,246.06L405.961,246.06z M411.013,396h-48.785v131.197H306V396h-27.096v-42.923H306v-27.876
	c0-37.876,16.337-60.401,60.876-60.401h51.322v46.438h-41.919c-12.442-0.021-13.984,6.487-13.984,18.599l-0.07,23.237h56.23
	l-7.438,42.923V396H411.013z"/>
</svg>
