<?xml version="1.0" encoding="utf-8"?>
<!-- Generator: Adobe Illustrator 15.0.0, SVG Export Plug-In . SVG Version: 6.00 Build 0)  -->
<!DOCTYPE svg PUBLIC "-//W3C//DTD SVG 1.1//EN" "http://www.w3.org/Graphics/SVG/1.1/DTD/svg11.dtd">
<svg version="1.1" id="reddit" xmlns="http://www.w3.org/2000/svg" xmlns:xlink="http://www.w3.org/1999/xlink" x="0px" y="0px"
	 width="612px" height="792px" viewBox="0 0 612 792" enable-background="new 0 0 612 792" xml:space="preserve">
<circle fill="#3299BB" cx="306" cy="396" r="293.76"/>
<path fill="#FFFFFF" d="M231.03,414.742c0-10.352,8.391-18.742,18.743-18.742s18.743,8.391,18.743,18.742
	c0,10.353-8.391,18.743-18.743,18.743S231.03,425.095,231.03,414.742z M343.485,414.742c0-10.352,8.391-18.742,18.742-18.742
	s18.742,8.391,18.742,18.742c0,10.353-8.391,18.743-18.742,18.743S343.485,425.095,343.485,414.742z M344.396,454.798
	c4.829-3.804,11.824-2.975,15.628,1.854c3.804,4.828,2.971,11.824-1.857,15.631c-13.439,10.587-33.92,17.433-52.17,17.433
	s-38.73-6.843-52.17-17.433c-4.829-3.807-5.658-10.803-1.854-15.631c3.807-4.829,10.802-5.658,15.63-1.854
	c7.736,6.096,23.054,12.659,38.397,12.659S336.658,460.894,344.396,454.798z M455.94,377.257c0-20.704-16.781-37.485-37.485-37.485
	c-14.092,0-26.353,7.782-32.758,19.275c-19.269-10.542-42.741-17.35-68.314-18.92l22.369-50.233l42.813,12.359
	c3.85,10.937,14.269,18.776,26.518,18.776c15.526,0,28.115-12.585,28.115-28.115c0-15.529-12.586-28.115-28.115-28.115
	c-10.707,0-20.016,5.985-24.762,14.792l-47.708-13.77c-5.337-1.539-10.995,1.089-13.253,6.166l-30.389,68.241
	c-24.933,1.756-47.813,8.498-66.662,18.813c-6.402-11.494-18.672-19.269-32.764-19.269c-20.704,0-37.485,16.781-37.485,37.485
	c0,15.322,9.198,28.48,22.366,34.293c-2.363,7.035-3.623,14.379-3.623,21.935c0,51.757,58.736,93.712,131.197,93.712
	c72.458,0,131.197-41.955,131.197-93.712c0-7.556-1.261-14.896-3.623-21.932C446.745,405.743,455.94,392.579,455.94,377.257z
	 M409.085,282.373c5.823,0,10.545,4.722,10.545,10.545s-4.722,10.544-10.545,10.544s-10.544-4.721-10.544-10.544
	S403.259,282.373,409.085,282.373z M174.803,377.257c0-10.333,8.409-18.742,18.742-18.742c7.47,0,13.932,4.394,16.94,10.731
	c-9.795,7.426-17.914,15.998-23.917,25.404C179.68,391.875,174.803,385.128,174.803,377.257L174.803,377.257z M306,504.939
	c-60.166,0-108.939-31.993-108.939-71.454c0-39.462,48.773-71.455,108.939-71.455c60.166,0,108.939,31.989,108.939,71.455
	C414.939,472.95,366.166,504.939,306,504.939z M425.429,394.647c-6.004-9.403-14.122-17.971-23.914-25.404
	c3.011-6.337,9.471-10.731,16.94-10.731c10.334,0,18.742,8.409,18.742,18.743C437.197,385.125,432.32,391.872,425.429,394.647
	L425.429,394.647z"/>
</svg>
