<?xml version="1.0" encoding="utf-8"?>
<!-- Generator: Adobe Illustrator 15.0.0, SVG Export Plug-In . SVG Version: 6.00 Build 0)  -->
<!DOCTYPE svg PUBLIC "-//W3C//DTD SVG 1.1//EN" "http://www.w3.org/Graphics/SVG/1.1/DTD/svg11.dtd">
<svg version="1.1" id="tumblr" xmlns="http://www.w3.org/2000/svg" xmlns:xlink="http://www.w3.org/1999/xlink" x="0px" y="0px"
	 width="612px" height="792px" viewBox="0 0 612 792" enable-background="new 0 0 612 792" xml:space="preserve">
<circle fill="#3299BB" cx="306" cy="396" r="293.76"/>
<path fill="#FFFFFF" d="M405.974,246.06H206.048c-27.494,0-49.988,22.494-49.988,49.988v199.907
	c0,27.509,22.494,49.985,49.985,49.985H405.97c27.491,0.003,49.971-22.477,49.971-49.985V296.048
	C455.937,268.557,433.461,246.063,405.974,246.06L405.974,246.06z M370.346,487.57c-8.831,4.155-16.849,7.084-24.015,8.768
	c-7.173,1.667-14.924,2.506-23.253,2.506c-9.462,0-15.046-1.188-22.311-3.568c-7.268-2.398-13.47-5.82-18.596-10.211
	c-5.144-4.428-8.693-9.138-10.68-14.113c-1.989-4.981-2.974-12.209-2.974-21.671v-72.564h-28.112v-29.303
	c8.125-2.634,17.552-6.423,23.335-11.346c5.811-4.942,10.459-10.854,13.966-17.77c3.516-6.9,5.931-15.704,7.25-26.377h29.431v47.864
	h47.843v36.938h-47.85v53.06c0,12.008-0.155,18.927,1.12,22.329c1.264,3.384,4.428,6.9,7.877,8.932
	c4.584,2.748,9.813,4.119,15.704,4.119c10.48,0,20.905-3.402,31.261-10.214v32.635v-0.013H370.346z"/>
</svg>
