<?xml version="1.0" encoding="utf-8"?>
<!-- Generator: Adobe Illustrator 15.0.0, SVG Export Plug-In . SVG Version: 6.00 Build 0)  -->
<!DOCTYPE svg PUBLIC "-//W3C//DTD SVG 1.1//EN" "http://www.w3.org/Graphics/SVG/1.1/DTD/svg11.dtd">
<svg version="1.1" id="twitter" xmlns="http://www.w3.org/2000/svg" xmlns:xlink="http://www.w3.org/1999/xlink" x="0px" y="0px"
	 width="612px" height="792px" viewBox="0 0 612 792" enable-background="new 0 0 612 792" xml:space="preserve">
<circle fill="#3299BB" cx="306" cy="396" r="293.76"/>
<path fill="#FFFFFF" d="M455.943,302.45c-11.035,4.92-22.889,8.247-35.334,9.743c12.699-7.659,22.454-19.786,27.054-34.238
	c-11.889,7.093-25.053,12.24-39.07,15.018c-11.221-12.029-27.213-19.544-44.909-19.544c-33.978,0-61.527,27.705-61.527,61.882
	c0,4.85,0.542,9.572,1.591,14.104c-51.133-2.585-96.467-27.219-126.813-64.661c-5.294,9.143-8.33,19.773-8.33,31.114
	c0,21.472,10.863,40.417,27.372,51.512c-10.085-0.318-19.575-3.103-27.864-7.739c-0.006,0.26-0.006,0.52-0.006,0.78
	c0,29.985,21.208,54.995,49.354,60.683c-5.165,1.417-10.597,2.173-16.209,2.173c-3.965,0-7.818-0.389-11.576-1.111
	c7.831,24.584,30.551,42.479,57.473,42.978c-21.056,16.598-47.586,26.49-76.411,26.49c-4.966,0-9.862-0.293-14.676-0.862
	c27.228,17.558,59.569,27.806,94.309,27.806c113.165,0,175.051-94.3,175.051-176.081c0-2.684-0.062-5.349-0.181-8.008
	C437.262,325.758,447.693,314.855,455.943,302.45z"/>
</svg>
